<?xml version="1.0" standalone="no"?>
<!DOCTYPE svg PUBLIC "-//W3C//DTD SVG 20010904//EN"
 "http://www.w3.org/TR/2001/REC-SVG-20010904/DTD/svg10.dtd">
<svg version="1.0" xmlns="http://www.w3.org/2000/svg"
 width="195.000000pt" height="183.000000pt" viewBox="0 0 195.000000 183.000000"
 preserveAspectRatio="xMidYMid meet">

<g transform="translate(0.000000,183.000000) scale(0.100000,-0.100000)"
fill="#000000" stroke="none">
<path d="M265 1811 c-67 -65 -210 -104 -252 -69 -10 8 -13 -6 -13 -65 0 -84
-5 -77 82 -96 49 -11 100 -1 126 26 8 7 22 18 33 23 10 6 19 15 19 20 0 15 33
50 46 50 7 0 15 6 17 13 4 9 8 9 15 -2 7 -10 18 -11 38 -6 40 10 104 14 104 6
0 -4 19 -28 43 -54 45 -49 88 -67 164 -67 37 0 44 -4 58 -30 9 -17 24 -30 34
-30 11 0 28 -15 40 -34 25 -41 58 -63 102 -71 29 -5 31 -4 19 10 -8 10 -10 19
-4 23 5 4 9 26 9 49 -1 32 4 43 17 46 10 3 18 14 18 25 0 11 7 23 16 26 8 3
12 2 9 -4 -9 -15 8 -12 31 4 18 14 18 15 -11 46 -16 18 -46 39 -65 47 -19 8
-42 21 -51 29 -24 21 -59 26 -52 8 4 -10 0 -12 -11 -8 -9 4 -16 1 -16 -6 0 -7
-8 -3 -17 9 -13 15 -22 18 -33 11 -12 -8 -12 -10 5 -10 18 -1 17 -2 -5 -15
-22 -12 -26 -12 -32 3 -4 9 -7 11 -7 5 -2 -28 -141 -7 -173 25 -14 14 -48 16
-48 3 0 -4 -13 -8 -30 -7 -16 1 -30 6 -30 13 0 6 -8 25 -17 42 -17 30 -20 31
-88 31 -56 0 -75 -4 -90 -19z"/>
<path d="M1115 1540 c-4 -6 5 -9 19 -8 15 1 26 6 26 10 0 12 -38 10 -45 -2z"/>
<path d="M1067 1533 c-10 -9 -9 -43 1 -43 10 0 32 22 32 32 0 4 -7 4 -17 1
-11 -4 -14 -3 -9 5 8 13 3 16 -7 5z"/>
<path d="M1528 1513 c6 -2 18 -2 25 0 6 3 1 5 -13 5 -14 0 -19 -2 -12 -5z"/>
<path d="M1650 1505 c0 -1 5 -16 11 -34 11 -30 19 -35 48 -32 7 2 10 -2 6 -8
-9 -16 1 -13 19 5 9 8 16 12 16 7 0 -13 -14 -30 -30 -36 -12 -4 -11 -6 3 -6 9
-1 17 -5 17 -11 0 -5 5 -10 12 -10 9 0 9 3 1 11 -9 9 -9 16 0 29 17 28 -13 65
-62 78 -23 5 -41 9 -41 7z m40 -45 c6 -11 8 -20 6 -20 -3 0 -10 9 -16 20 -6
11 -8 20 -6 20 3 0 10 -9 16 -20z"/>
<path d="M1105 1481 c-3 -5 -1 -12 5 -16 5 -3 10 1 10 9 0 18 -6 21 -15 7z"/>
<path d="M1142 1478 c-7 -7 -12 -31 -12 -55 0 -24 -3 -42 -7 -42 -5 1 -10 1
-13 -1 -21 -8 -50 -8 -50 -1 0 5 10 11 23 13 15 2 23 11 25 28 l2 25 -13 -24
c-8 -14 -17 -19 -21 -13 -3 6 0 12 6 15 7 3 0 4 -16 2 -16 -1 -35 -9 -41 -19
-7 -9 -18 -16 -24 -16 -16 0 56 -76 95 -100 17 -11 34 -20 38 -20 3 0 6 19 6
43 0 23 5 71 10 107 5 35 8 65 6 67 -1 1 -8 -3 -14 -9z"/>
<path d="M990 1460 c-16 -12 -22 -22 -15 -28 14 -14 51 2 65 27 9 18 8 21 -7
21 -10 0 -29 -9 -43 -20z"/>
<path d="M1292 1315 c0 -75 4 -104 15 -117 13 -15 14 -18 1 -23 -18 -7 -21
-45 -2 -45 8 0 14 4 14 9 0 12 86 34 109 28 15 -4 22 2 29 22 10 28 -3 66 -35
103 -9 10 -13 28 -11 42 3 16 0 27 -10 31 -22 8 -26 0 -14 -33 7 -19 7 -34 0
-43 -8 -11 -9 -11 -5 3 3 9 -1 19 -9 22 -7 3 -13 2 -13 -2 4 -25 -3 -62 -11
-62 -5 0 -14 19 -20 43 -7 23 -18 60 -25 82 -14 39 -14 37 -13 -60z"/>
<path d="M1734 1366 c11 -9 27 -16 35 -15 14 0 14 1 1 6 -8 3 -24 10 -35 15
-20 9 -20 9 -1 -6z"/>
<path d="M1548 1328 c5 -5 19 -4 33 1 23 10 22 10 -8 8 -18 0 -29 -5 -25 -9z"/>
<path d="M1734 1282 c4 -7 -3 -14 -18 -18 -18 -4 -26 -15 -31 -41 -7 -41 -8
-39 26 -48 20 -5 28 -2 33 11 9 23 -1 31 -24 16 -18 -11 -18 -9 -8 19 7 20 13
27 18 19 5 -7 9 -2 12 14 3 15 1 29 -5 33 -6 3 -7 1 -3 -5z"/>
<path d="M1536 1264 c-17 -12 -17 -14 -4 -14 9 0 20 5 23 11 11 17 2 18 -19 3z"/>
<path d="M1480 1249 c0 -5 5 -7 10 -4 6 3 10 8 10 11 0 2 -4 4 -10 4 -5 0 -10
-5 -10 -11z"/>
<path d="M1565 1230 c-3 -5 1 -10 10 -10 9 0 13 5 10 10 -3 6 -8 10 -10 10 -2
0 -7 -4 -10 -10z"/>
<path d="M1030 1150 c0 -5 5 -10 11 -10 5 0 7 5 4 10 -3 6 -8 10 -11 10 -2 0
-4 -4 -4 -10z"/>
<path d="M38 1143 l-38 -4 0 -511 0 -510 44 3 c48 4 56 -17 8 -23 -15 -2 46
-3 136 -2 89 0 165 4 169 8 8 7 8 13 11 84 3 62 52 112 110 112 78 0 139 -87
107 -151 -12 -22 -24 -29 -60 -35 -25 -3 -45 -10 -45 -15 0 -5 -18 -6 -39 -3
-32 5 -43 2 -60 -15 -21 -21 -28 -22 -167 -17 -92 4 -143 2 -139 -4 4 -6 -8
-10 -26 -10 -18 0 -30 -1 -28 -3 2 -1 128 0 279 3 209 4 274 8 273 17 -4 18
25 30 89 36 33 3 65 12 74 21 10 11 37 16 82 18 37 0 82 2 100 3 18 0 36 -3
39 -8 3 -4 11 0 19 10 13 16 14 16 8 0 -3 -9 -4 -17 -1 -17 2 0 16 37 30 82
15 46 35 91 47 100 13 12 20 30 20 55 l0 38 -202 -3 c-112 -2 -288 -7 -393
-11 -104 -4 -195 -5 -202 -3 -6 2 -14 13 -17 25 -7 27 -31 307 -47 550 l-12
177 -31 0 c-17 0 -47 2 -66 4 -19 2 -52 2 -72 -1z"/>
<path d="M1236 1086 c7 -17 44 -22 44 -6 0 6 -4 10 -9 10 -5 0 -17 3 -25 6
-12 5 -15 2 -10 -10z"/>
<path d="M753 1083 c9 -2 23 -2 30 0 6 3 -1 5 -18 5 -16 0 -22 -2 -12 -5z"/>
<path d="M808 1073 c7 -3 16 -2 19 1 4 3 -2 6 -13 5 -11 0 -14 -3 -6 -6z"/>
<path d="M1308 1043 c7 -3 16 -2 19 1 4 3 -2 6 -13 5 -11 0 -14 -3 -6 -6z"/>
<path d="M1771 983 c0 -17 -8 -39 -17 -47 -8 -9 -11 -16 -5 -16 17 0 33 39 28
68 -4 25 -4 25 -6 -5z"/>
<path d="M1311 954 c0 -11 3 -14 6 -6 3 7 2 16 -1 19 -3 4 -6 -2 -5 -13z"/>
<path d="M1060 921 c0 -16 57 -51 75 -47 34 9 63 -3 58 -23 -6 -24 35 -67 71
-76 27 -6 28 -5 16 10 -13 15 -10 16 22 10 37 -7 63 10 34 21 -9 3 -16 16 -15
28 0 20 1 20 8 1 7 -17 10 -14 19 19 13 46 9 56 -24 56 -14 0 -22 -4 -19 -10
9 -14 -13 -12 -74 6 -32 9 -57 12 -64 6 -18 -13 -49 -23 -43 -13 3 5 -10 11
-29 13 -19 2 -35 2 -35 -1z m155 -81 c3 -5 1 -10 -4 -10 -6 0 -11 5 -11 10 0
6 2 10 4 10 3 0 8 -4 11 -10z"/>
<path d="M1239 720 c20 -9 23 -16 19 -55 -2 -34 0 -44 10 -40 10 4 10 0 1 -17
-9 -17 -9 -23 0 -26 17 -6 13 -22 -6 -22 -13 0 -15 -2 -5 -8 9 -6 10 -16 3
-34 -5 -14 -8 -34 -7 -44 2 -11 -2 -22 -8 -26 -24 -15 4 -18 33 -3 24 12 31
22 31 45 0 24 -3 28 -17 23 -16 -6 -16 -5 -5 10 8 9 16 42 18 74 2 32 6 74 9
93 l4 35 -52 2 c-42 2 -47 0 -28 -7z m41 -230 c0 -5 -4 -10 -10 -10 -5 0 -10
5 -10 10 0 6 5 10 10 10 6 0 10 -4 10 -10z"/>
<path d="M1330 712 c0 -17 32 -103 37 -98 8 8 -18 106 -28 106 -5 0 -9 -4 -9
-8z"/>
<path d="M1450 363 c0 -6 5 -15 10 -18 6 -4 5 -12 -5 -21 -11 -11 -19 -12 -34
-5 -14 8 -20 7 -24 -4 -3 -7 -1 -16 6 -18 7 -3 -1 -3 -18 -2 -16 2 -34 4 -38
4 -5 1 -6 4 -3 9 2 4 -14 6 -37 3 -33 -3 -38 -5 -22 -12 17 -6 17 -8 3 -8 -17
-1 -58 -34 -58 -47 0 -4 -8 -13 -17 -21 -10 -8 -13 -12 -6 -9 7 4 11 -1 10
-13 0 -11 -5 -17 -11 -14 -5 4 -7 -1 -3 -11 4 -9 3 -15 -2 -12 -16 10 -23 -65
-10 -115 l13 -49 93 0 c91 0 94 1 105 26 8 16 18 24 29 21 14 -4 17 7 22 67 9
101 17 132 39 156 11 11 17 28 14 36 -3 8 -2 13 2 10 4 -2 14 -1 22 5 11 6 8
9 -13 9 -17 0 -36 9 -48 23 -10 12 -18 17 -19 10z"/>
<path d="M1930 318 c0 -7 -16 -31 -35 -52 -19 -22 -35 -34 -35 -28 0 7 -10 11
-22 11 -17 -1 -19 -2 -5 -6 20 -5 22 -19 5 -29 -6 -4 -8 -3 -4 4 4 6 -1 10
-13 9 -14 -1 -17 -5 -10 -13 6 -7 4 -16 -6 -24 -13 -10 -19 -10 -33 3 -12 11
-22 13 -34 6 -11 -6 -19 -6 -23 1 -7 12 -25 13 -25 2 0 -4 12 -20 27 -37 28
-29 27 -29 -24 -8 -7 3 -10 -3 -6 -16 3 -12 10 -21 15 -21 6 0 8 -13 5 -30 -4
-17 -4 -44 0 -60 l6 -30 118 0 119 0 0 165 c0 103 -4 165 -10 165 -5 0 -10 -6
-10 -12z"/>
<path d="M1776 205 c4 -8 11 -15 16 -15 6 0 5 6 -2 15 -7 8 -14 15 -16 15 -2
0 -1 -7 2 -15z"/>
<path d="M1112 165 c0 -5 6 -26 13 -45 7 -19 14 -28 14 -20 0 8 -6 29 -14 45
-7 17 -13 26 -13 20z"/>
<path d="M1041 48 c-1 -27 3 -48 7 -48 4 0 6 17 4 38 -5 58 -10 62 -11 10z"/>
<path d="M1562 65 c0 -16 3 -39 8 -50 l9 -20 -1 20 c0 11 -4 34 -8 50 l-8 30
0 -30z"/>
<path d="M1140 63 c0 -36 13 -63 29 -63 14 0 16 7 13 36 -3 25 -7 32 -13 23
-7 -11 -9 -10 -9 4 0 9 -4 17 -10 17 -5 0 -10 -8 -10 -17z"/>
<path d="M1493 40 c0 -25 2 -35 4 -22 2 12 2 32 0 45 -2 12 -4 2 -4 -23z"/>
</g>
</svg>
