<?xml version="1.0" standalone="no"?>
<!DOCTYPE svg PUBLIC "-//W3C//DTD SVG 20010904//EN"
 "http://www.w3.org/TR/2001/REC-SVG-20010904/DTD/svg10.dtd">
<svg version="1.0" xmlns="http://www.w3.org/2000/svg"
 width="612.000000pt" height="408.000000pt" viewBox="0 0 612.000000 408.000000"
 preserveAspectRatio="xMidYMid meet">

<g transform="translate(0.000000,408.000000) scale(0.100000,-0.100000)"
fill="#000000" stroke="none">
<path d="M584 3703 c15 -861 24 -1823 17 -1888 -5 -38 -4 -78 0 -87 5 -9 9
-52 9 -95 -1 -43 1 -88 4 -101 5 -22 4 -22 -32 6 -20 17 -46 39 -56 51 -11 12
-34 31 -52 42 -32 19 -34 19 -61 2 -86 -54 -112 -88 -113 -149 0 -83 66 -224
106 -224 8 0 14 -4 14 -9 0 -5 20 -21 44 -35 43 -25 91 -64 149 -121 17 -16
34 -29 39 -27 4 1 8 -4 8 -11 0 -29 39 -47 103 -47 63 0 115 -10 265 -49 111
-29 129 -22 21 9 -46 12 -113 31 -149 41 -40 11 -81 16 -107 13 -45 -6 -53 1
-67 58 -6 25 -4 28 19 28 31 0 70 39 93 93 12 26 21 35 32 31 49 -21 47 -33
43 218 -1 128 -7 568 -13 978 -5 410 -13 949 -16 1198 l-7 452 -150 0 -150 0
7 -377z m176 -2278 c0 -10 -44 -55 -53 -55 -6 0 -3 8 6 18 10 10 17 24 17 30
0 7 7 12 15 12 8 0 15 -2 15 -5z"/>
<path d="M957 3928 c2 -84 7 -567 13 -1073 5 -506 13 -1089 16 -1296 l7 -376
26 -15 c14 -9 32 -13 38 -11 10 4 12 142 8 661 -3 361 -7 783 -10 937 -3 154
-8 515 -11 803 l-7 522 -41 0 -41 0 2 -152z"/>
<path d="M4266 4052 c-10 -9 -7 -102 3 -102 5 0 16 -3 25 -6 13 -5 16 3 16 49
0 46 -3 55 -19 60 -11 3 -22 2 -25 -1z"/>
<path d="M4101 3500 c-13 -11 -31 -20 -40 -21 -12 0 -12 -2 4 -9 13 -6 15 -9
5 -9 -18 -1 -43 -38 -35 -51 4 -6 -1 -13 -11 -17 -16 -6 -16 -7 0 -18 15 -12
15 -13 -1 -20 -16 -6 -15 -8 7 -20 19 -11 21 -14 8 -15 -24 0 -23 -17 2 -25
11 -3 20 -15 20 -25 0 -23 15 -27 118 -30 77 -1 82 0 82 19 0 12 5 21 10 21 6
0 10 -10 10 -23 0 -32 51 -80 81 -75 22 3 24 7 23 63 -2 121 -90 242 -193 264
-65 14 -61 14 -90 -9z m169 -70 c0 -5 -2 -10 -4 -10 -3 0 -8 5 -11 10 -3 6 -1
10 4 10 6 0 11 -4 11 -10z m-22 -37 c-1 -10 3 -35 7 -55 5 -27 4 -38 -5 -38
-6 0 -10 8 -9 18 1 9 -1 29 -5 44 -4 15 -5 32 -1 37 9 16 14 13 13 -6z"/>
<path d="M3928 3213 c6 -33 43 -74 50 -55 2 7 7 12 12 12 5 0 20 4 34 10 35
13 24 40 -16 40 -23 0 -29 -4 -24 -15 3 -10 -1 -15 -13 -15 -12 0 -21 10 -25
25 -9 34 -24 32 -18 -2z"/>
<path d="M2356 3129 c-14 -17 -26 -39 -26 -49 0 -10 -4 -22 -10 -25 -5 -3 -10
-24 -10 -46 0 -21 -3 -39 -7 -39 -13 0 -15 -141 -3 -215 16 -98 22 -248 10
-240 -12 8 -12 3 -1 -28 6 -14 7 -28 3 -31 -10 -10 -1 -107 11 -130 35 -62 88
-86 116 -53 6 8 27 14 46 15 45 2 185 62 185 80 0 18 -29 72 -56 105 -26 31
-30 63 -12 102 12 26 24 29 93 26 l40 -2 -30 19 c-31 20 -63 52 -50 52 4 0 21
-9 38 -21 24 -15 21 -11 -11 18 -27 25 -41 45 -37 54 3 8 -6 36 -20 62 -14 27
-25 57 -25 68 0 31 -17 22 -30 -16 -14 -42 -22 -44 -41 -7 -8 15 -22 33 -31
40 -13 9 -18 27 -18 62 0 69 -20 203 -32 218 -19 23 -65 14 -92 -19z m254
-381 c0 -10 -4 -18 -10 -18 -5 0 -10 6 -10 14 0 8 -5 16 -11 18 -6 2 -7 11 -3
22 7 18 8 18 21 0 7 -10 13 -26 13 -36z m-209 -165 c1 -10 1 -21 0 -25 0 -5 4
-8 9 -8 6 0 10 -8 10 -17 0 -15 -2 -16 -10 -3 -5 8 -10 11 -11 5 -1 -15 -17
27 -18 48 -1 9 4 17 9 17 6 0 11 -8 11 -17z"/>
<path d="M3885 3140 c4 -6 11 -8 16 -5 14 9 11 15 -7 15 -8 0 -12 -5 -9 -10z"/>
<path d="M3831 3094 c0 -11 3 -14 6 -6 3 7 2 16 -1 19 -3 4 -6 -2 -5 -13z"/>
<path d="M4138 3050 c17 -11 32 -21 32 -22 0 -2 -25 -1 -56 0 -55 4 -55 4 -42
-19 24 -42 37 -51 65 -44 23 5 73 47 73 60 0 7 -78 45 -92 45 -7 0 2 -9 20
-20z"/>
<path d="M3832 3018 c-12 -30 -14 -31 -22 -13 -5 11 -9 14 -9 6 -1 -15 -85
-101 -99 -101 -38 0 -264 -33 -287 -42 -41 -15 -97 -57 -90 -68 3 -4 -2 -10
-10 -14 -9 -3 -15 -19 -15 -40 0 -19 -7 -41 -15 -50 -20 -20 -37 -112 -33
-183 3 -54 5 -58 28 -60 59 -5 126 -14 140 -19 8 -3 82 -10 164 -15 131 -7
156 -11 203 -35 65 -31 87 -63 103 -148 11 -57 3 -161 -16 -209 -3 -9 4 -21
16 -30 11 -8 34 -35 51 -60 35 -53 77 -81 133 -91 36 -7 38 -9 32 -38 -3 -17
-1 -46 6 -65 17 -47 2 -55 -103 -50 -81 3 -89 5 -145 44 -33 22 -74 44 -91 47
-28 7 -31 5 -26 -13 3 -12 10 -21 15 -21 5 0 6 5 3 10 -3 6 -1 10 5 10 23 0
-22 -134 -49 -146 -9 -5 -129 -11 -268 -14 -148 -3 -256 -9 -262 -15 -5 -5
-11 -27 -14 -48 -6 -43 -22 -67 -46 -67 -22 -1 -71 -39 -51 -40 8 -1 3 -7 -12
-16 -29 -15 -38 -27 -15 -18 8 3 37 -4 65 -15 68 -27 105 -20 131 25 11 19 26
34 34 34 7 0 19 6 25 12 7 7 47 19 90 28 74 14 80 14 147 -7 39 -12 90 -27
114 -34 24 -7 61 -25 81 -40 21 -15 55 -31 77 -35 21 -4 56 -13 78 -21 22 -8
88 -16 146 -18 58 -3 118 -9 133 -15 52 -19 57 -15 51 43 -8 60 -30 124 -52
149 -16 17 -20 71 -9 106 5 15 1 24 -16 33 -13 6 -25 13 -27 15 -2 2 9 13 23
26 35 30 46 91 21 118 -17 19 -17 20 3 20 28 0 49 33 83 129 24 66 28 72 29
41 0 -19 6 -47 14 -62 8 -15 12 -35 10 -45 -3 -10 6 -30 18 -45 21 -25 26 -26
67 -19 25 5 57 5 75 0 28 -8 131 3 144 16 3 2 7 35 9 72 8 122 -71 481 -140
633 -31 70 -45 84 -164 166 -54 38 -101 72 -104 77 -9 13 -49 -11 -90 -54 -26
-29 -44 -39 -66 -39 -17 0 -41 -9 -54 -19 -21 -17 -22 -22 -11 -41 7 -11 10
-25 7 -30 -3 -4 0 -10 6 -12 13 -4 -37 -88 -52 -88 -14 0 -10 17 7 34 8 9 11
16 5 16 -5 0 -14 -6 -18 -14 -8 -13 -75 -46 -94 -46 -5 0 -9 9 -9 21 0 12 -21
41 -49 68 -54 52 -64 82 -57 166 2 28 5 62 5 76 1 14 15 44 32 65 36 45 82
131 77 145 -2 6 -9 -5 -16 -23z m-52 -469 c0 -6 -4 -7 -10 -4 -5 3 -10 11 -10
16 0 6 5 7 10 4 6 -3 10 -11 10 -16z m20 -124 c0 -8 -7 -15 -15 -15 -26 0 -18
20 13 29 1 1 2 -6 2 -14z m364 -658 c6 -36 -10 -43 -29 -13 -10 15 -14 33 -9
50 6 26 7 26 20 8 7 -10 15 -31 18 -45z"/>
<path d="M4300 3009 c-45 -20 -60 -34 -60 -56 0 -18 39 -16 46 2 4 8 13 15 21
15 8 0 11 5 8 10 -4 6 4 19 17 30 28 24 25 24 -32 -1z"/>
<path d="M4061 2803 c18 -21 37 -42 41 -47 5 -6 19 0 33 14 18 17 22 26 13 31
-7 5 -15 3 -19 -3 -4 -7 -19 -1 -41 16 -51 39 -67 32 -27 -11z"/>
<path d="M2837 2380 c-4 -14 -6 -41 -6 -60 l1 -35 9 40 c12 48 8 96 -4 55z"/>
<path d="M2721 2354 c0 -11 3 -14 6 -6 3 7 2 16 -1 19 -3 4 -6 -2 -5 -13z"/>
<path d="M2892 2325 c0 -16 2 -22 5 -12 2 9 2 23 0 30 -3 6 -5 -1 -5 -18z"/>
<path d="M2900 2276 c0 -9 12 -21 26 -27 36 -13 37 -8 3 19 -24 19 -29 21 -29
8z"/>
<path d="M3381 2124 c0 -11 3 -14 6 -6 3 7 2 16 -1 19 -3 4 -6 -2 -5 -13z"/>
<path d="M3240 2037 c19 -12 43 -30 53 -40 18 -18 40 -20 37 -3 -1 5 3 12 10
16 6 4 -18 16 -55 28 -82 27 -89 27 -45 -1z"/>
<path d="M3673 2026 c-3 -6 -3 -8 2 -4 4 4 13 4 19 -1 6 -5 29 -14 51 -21 22
-7 53 -21 70 -31 33 -21 45 -23 45 -11 0 12 -101 62 -145 72 -23 5 -37 4 -42
-4z"/>
<path d="M3625 1963 c6 -6 57 -26 115 -46 81 -28 100 -32 82 -17 -39 32 -228
93 -197 63z"/>
<path d="M3705 1859 c33 -16 76 -31 95 -35 33 -6 34 -5 15 8 -21 16 -141 59
-159 57 -6 0 16 -14 49 -30z"/>
<path d="M1980 1832 c0 -5 7 -24 16 -42 10 -18 17 -46 16 -61 0 -19 4 -29 14
-29 8 0 14 6 14 13 1 7 5 6 13 -5 7 -9 30 -19 50 -23 32 -6 36 -5 31 9 -3 9
-10 16 -14 16 -5 0 -11 13 -15 29 -5 23 -10 27 -29 24 -18 -4 -26 1 -31 16
-11 35 -65 78 -65 53z m120 -107 c0 -8 -2 -15 -4 -15 -2 0 -6 7 -10 15 -3 8
-1 15 4 15 6 0 10 -7 10 -15z"/>
<path d="M3128 1593 c7 -3 16 -2 19 1 4 3 -2 6 -13 5 -11 0 -14 -3 -6 -6z"/>
<path d="M1924 1425 c1 -47 -2 -85 -6 -85 -11 0 -10 -48 1 -55 5 -3 12 3 14
12 4 17 5 17 6 1 0 -10 7 -18 14 -18 11 0 12 13 5 63 -9 70 -28 167 -32 167
-2 0 -3 -38 -2 -85z m25 -85 c0 -9 -4 -8 -9 5 -5 11 -9 27 -9 35 0 9 4 8 9 -5
5 -11 9 -27 9 -35z"/>
<path d="M3420 1430 c-8 -6 -27 -10 -41 -10 -14 0 -34 -9 -44 -20 -18 -20 -17
-20 37 -20 53 0 56 1 61 28 6 32 6 34 -13 22z"/>
<path d="M2805 1339 c-38 -10 -122 -33 -185 -50 -287 -78 -366 -113 -457 -206
-48 -48 -95 -63 -52 -16 13 14 18 23 10 18 -11 -6 -12 -1 -6 31 4 21 11 46 17
54 6 8 -1 3 -15 -12 -14 -15 -28 -45 -32 -67 -5 -30 -12 -41 -30 -45 -16 -4
-33 -25 -54 -68 -36 -71 -37 -79 -12 -134 15 -32 27 -43 62 -56 48 -17 157
-49 174 -52 5 -1 16 -5 23 -10 28 -17 21 2 -13 38 -19 21 -35 46 -35 56 0 10
-4 22 -10 25 -13 8 -13 -6 0 -39 13 -35 0 -33 -33 5 -15 18 -31 28 -38 23 -8
-4 -9 -3 -5 4 9 15 113 45 132 38 7 -3 14 -1 14 4 0 6 7 10 15 10 9 0 29 7 45
15 32 16 57 0 26 -17 -9 -5 -16 -19 -17 -31 0 -19 -1 -20 -8 -4 -10 27 -26 21
-27 -10 0 -16 -4 -53 -8 -83 -7 -54 -7 -56 18 -68 16 -7 26 -8 26 -2 0 6 -3
10 -8 10 -4 0 -13 9 -20 20 -10 16 -10 30 0 67 6 26 13 42 16 35 6 -19 22 -14
22 7 0 11 4 22 8 25 5 3 5 -16 1 -42 -4 -26 -8 -68 -8 -94 -1 -41 3 -50 27
-65 15 -10 32 -23 37 -29 18 -19 65 -45 65 -35 0 4 -6 14 -14 20 -7 6 -17 26
-21 44 l-8 32 -7 -30 c-7 -29 -8 -29 -10 10 -1 23 -4 32 -7 20 -7 -27 -23 -44
-23 -23 0 9 -7 18 -15 22 -11 4 -15 19 -14 53 0 39 2 44 9 25 5 -12 7 -28 4
-36 -3 -8 -1 -17 5 -21 7 -4 8 0 4 11 -4 11 -2 15 4 11 22 -14 37 24 35 90 -1
36 -4 69 -7 73 -3 5 -1 11 5 15 5 3 10 1 10 -4 0 -6 8 -11 18 -12 10 0 12 -3
5 -6 -17 -6 -16 -165 1 -212 11 -32 13 -24 28 110 14 129 20 153 55 229 41 87
107 175 150 198 14 8 23 16 20 19 -9 8 -157 -78 -152 -88 4 -5 -2 -6 -11 -2
-11 4 -15 3 -10 -5 8 -13 -25 -25 -48 -16 -11 4 -19 -1 -25 -17 -5 -13 -10
-20 -10 -15 -1 5 -10 1 -21 -9 -11 -10 -20 -14 -20 -8 0 8 64 59 126 100 15
10 13 10 -11 1 -52 -21 -115 -68 -138 -104 -12 -18 -28 -34 -34 -34 -24 0 -17
11 54 84 31 33 58 49 110 66 97 32 254 93 249 97 -1 2 -74 -21 -161 -51 -172
-59 -224 -90 -270 -159 -29 -44 -31 -45 -70 -40 -50 7 -51 7 -36 40 10 26 10
27 -4 9 -8 -11 -15 -23 -15 -28 0 -4 -12 -8 -26 -8 -24 0 -22 3 28 56 29 30
70 64 90 75 33 17 264 87 513 156 50 14 92 27 94 29 9 8 -26 2 -94 -17z m-360
-291 c-1 -13 -7 -23 -13 -22 -7 1 -24 2 -38 3 -22 1 -24 4 -14 15 6 8 17 13
25 10 7 -3 16 -1 20 5 11 18 22 12 20 -11z m43 -26 c-10 -41 -28 -58 -28 -27
0 18 29 79 35 73 2 -2 -1 -23 -7 -46z m-97 -262 c-8 -22 -10 -23 -16 -7 -4 9
-4 25 1 35 4 9 8 20 9 25 6 20 8 20 12 -3 2 -14 0 -37 -6 -50z m-293 34 c14
-15 14 -16 -3 -13 -10 2 -20 10 -23 17 -5 17 6 15 26 -4z"/>
<path d="M3068 1353 c-11 -3 -18 -14 -18 -29 0 -28 -2 -27 38 -13 28 10 53 39
33 39 -5 0 -15 2 -23 4 -7 2 -21 2 -30 -1z"/>
<path d="M2750 1255 c-25 -13 -42 -24 -39 -25 13 0 78 30 84 40 8 13 7 13 -45
-15z"/>
<path d="M5180 1190 c0 -5 14 -16 30 -25 32 -16 38 -30 18 -38 -9 -3 -7 -9 6
-20 19 -14 19 -15 -3 -26 -12 -7 -20 -18 -18 -24 2 -7 -3 -18 -12 -25 -9 -7
-11 -12 -6 -11 6 1 21 0 35 -1 21 -2 20 -3 -10 -10 -21 -5 -40 -5 -47 1 -7 7
-13 6 -18 -1 -3 -5 -3 -10 0 -10 4 0 -3 -12 -14 -26 -12 -15 -21 -35 -21 -46
0 -11 -4 -17 -9 -13 -5 3 -19 -7 -30 -22 -11 -16 -28 -36 -37 -45 -19 -19 -25
-18 151 -38 268 -31 296 -32 317 -13 11 9 17 25 15 35 -4 13 2 20 18 24 15 4
23 13 22 25 -1 10 -4 19 -8 19 -11 0 -49 37 -49 48 0 5 -9 12 -19 15 -11 3
-22 17 -26 36 -9 43 -29 40 -22 -3 4 -27 1 -38 -15 -53 -20 -18 -21 -18 -10 3
6 11 8 30 5 42 -6 24 -28 29 -37 10 -3 -7 -3 -2 0 12 4 14 12 32 19 40 24 30
25 49 2 73 -12 13 -32 35 -44 50 -13 15 -28 27 -34 27 -7 0 0 -11 15 -25 37
-34 35 -70 -3 -46 -10 6 -10 10 -1 16 7 4 0 15 -21 31 -25 18 -46 24 -86 24
-29 0 -53 -4 -53 -10z m186 -132 c-10 -6 -20 -7 -24 -3 -9 8 20 25 31 18 5 -3
2 -10 -7 -15z m-76 -54 c-22 -26 -51 -37 -63 -25 -8 8 -6 11 6 11 10 0 20 7
23 15 4 8 15 15 26 15 17 0 18 -2 8 -16z m-88 -46 c-7 -7 -12 -8 -12 -2 0 14
12 26 19 19 2 -3 -1 -11 -7 -17z m108 13 c0 -5 -7 -11 -14 -14 -10 -4 -13 -1
-9 9 6 15 23 19 23 5z m-157 -78 c-7 -2 -19 -2 -25 0 -7 3 -2 5 12 5 14 0 19
-2 13 -5z"/>
<path d="M2832 1170 c-8 -13 -8 -20 -2 -20 6 0 13 7 17 15 9 24 -1 27 -15 5z"/>
<path d="M3028 1091 c-18 -38 -14 -136 4 -125 6 4 7 20 4 37 -3 16 -2 35 3 41
5 6 16 28 24 48 14 34 14 37 -1 35 -10 0 -25 -17 -34 -36z"/>
<path d="M575 1100 c3 -5 8 -10 11 -10 2 0 4 5 4 10 0 6 -5 10 -11 10 -5 0 -7
-4 -4 -10z"/>
<path d="M2246 1075 c-3 -9 -6 -22 -5 -28 0 -7 5 -1 10 12 5 13 8 26 5 28 -2
2 -6 -3 -10 -12z"/>
<path d="M2270 1061 c-6 -12 -7 -21 -1 -21 10 0 24 30 17 37 -2 3 -9 -5 -16
-16z"/>
<path d="M5440 1059 c0 -5 5 -7 10 -4 6 3 10 8 10 11 0 2 -4 4 -10 4 -5 0 -10
-5 -10 -11z"/>
<path d="M600 1010 c0 -25 4 -30 24 -30 35 0 39 14 11 38 -32 28 -35 28 -35
-8z"/>
<path d="M5091 970 c-17 -15 -19 -20 -7 -20 8 0 20 9 26 20 13 25 11 25 -19 0z"/>
<path d="M4870 970 c-8 -5 -25 -10 -37 -10 -27 0 -28 -8 -7 -38 20 -30 42 -28
55 5 13 36 8 55 -11 43z"/>
<path d="M4990 941 c0 -63 -33 -94 -108 -101 -49 -5 -66 -2 -84 12 -13 10 -28
18 -35 18 -7 0 -20 8 -30 19 -17 17 -93 35 -93 21 0 -3 19 -14 43 -23 39 -16
27 -17 -33 -3 -17 4 -14 1 9 -10 19 -8 43 -16 53 -17 10 -1 18 -5 18 -9 0 -4
10 -8 23 -9 21 0 21 -1 2 -9 -12 -5 23 -7 90 -6 88 3 118 8 148 24 45 24 90
69 82 83 -9 13 -32 11 -38 -3 -3 -7 -6 -1 -6 13 -1 22 -17 39 -37 39 -2 0 -4
-18 -4 -39z"/>
<path d="M4907 963 c-4 -3 -7 -13 -7 -22 1 -13 4 -12 16 4 11 14 18 16 21 7 5
-13 23 -7 23 9 0 10 -43 12 -53 2z"/>
<path d="M3031 940 c0 -8 4 -24 9 -35 5 -13 9 -14 9 -5 0 8 -4 24 -9 35 -5 13
-9 14 -9 5z"/>
<path d="M1150 931 c8 -5 26 -12 40 -15 l25 -7 -25 15 c-14 9 -32 15 -40 15
-13 0 -13 -1 0 -8z"/>
<path d="M4763 900 c1 -11 5 -20 9 -20 4 0 8 9 8 20 0 11 -4 20 -9 20 -6 0 -9
-9 -8 -20z"/>
<path d="M1234 898 c9 -5 58 -13 109 -17 89 -7 137 -22 137 -41 0 -5 -7 -6
-17 -3 -11 4 -14 3 -9 -5 4 -7 1 -12 -8 -12 -14 0 -86 -38 -86 -45 0 -2 24 7
53 20 29 13 80 26 113 30 32 4 91 20 129 35 39 15 77 30 85 33 8 3 -61 5 -155
5 -93 0 -214 2 -268 5 -61 2 -93 0 -83 -5z"/>
<path d="M4566 879 c4 -8 -1 -9 -15 -4 -15 5 -21 2 -21 -10 0 -10 7 -15 18
-13 18 3 110 -28 127 -43 12 -12 25 -11 25 1 0 6 -4 10 -9 10 -17 0 -64 20
-59 26 3 2 17 0 32 -5 14 -6 26 -8 26 -6 0 9 -58 34 -63 28 -4 -3 -12 -1 -19
4 -21 16 -50 24 -42 12z"/>
<path d="M4914 875 c-10 -8 -14 -15 -8 -15 5 0 19 7 30 15 10 8 14 15 8 15 -5
0 -19 -7 -30 -15z"/>
<path d="M2260 845 c-7 -14 -10 -28 -7 -32 4 -3 7 -1 7 6 0 7 4 10 9 6 5 -3
12 -1 16 5 3 5 2 10 -4 10 -6 0 -8 7 -5 15 10 24 -1 17 -16 -10z"/>
<path d="M470 821 l-24 -19 27 -13 c33 -15 52 -2 42 30 -8 26 -13 26 -45 2z"/>
<path d="M1217 593 c-10 -9 -9 -23 2 -23 5 0 11 7 15 15 5 15 -5 20 -17 8z"/>
<path d="M611 554 c0 -11 3 -14 6 -6 3 7 2 16 -1 19 -3 4 -6 -2 -5 -13z"/>
<path d="M610 478 c0 -21 5 -38 10 -38 6 0 10 -8 10 -18 0 -21 -50 -38 -350
-117 -96 -25 -199 -53 -228 -61 l-52 -15 0 -115 0 -114 143 0 c114 0 157 4
208 20 35 11 134 40 218 65 85 25 156 47 157 48 1 1 4 86 7 190 l5 187 -37 1
c-20 0 -48 2 -63 3 -26 2 -28 -1 -28 -36z"/>
<path d="M841 506 c5 -4 207 -56 217 -56 4 1 -5 7 -20 15 -37 20 -215 57 -197
41z"/>
<path d="M820 466 c0 -25 3 -26 53 -26 95 0 85 24 -20 45 -30 6 -33 5 -33 -19z"/>
<path d="M1585 419 c4 -6 7 -77 7 -157 0 -178 15 -148 20 41 3 117 2 127 -15
127 -10 0 -15 -5 -12 -11z"/>
<path d="M2180 390 c-19 -16 -21 -22 -10 -35 15 -18 66 -20 73 -2 7 18 -10 57
-26 57 -8 0 -24 -9 -37 -20z"/>
<path d="M2432 336 c-20 -22 -21 -26 -6 -40 38 -38 89 -4 64 44 -14 26 -30 25
-58 -4z"/>
<path d="M5640 309 c-153 -92 -236 -126 -372 -149 -34 -6 -112 -23 -173 -38
-96 -23 -105 -27 -70 -30 90 -8 281 33 412 87 88 36 319 179 293 181 -3 0 -43
-23 -90 -51z"/>
<path d="M3035 322 c2 -9 4 -30 5 -47 1 -16 4 -25 6 -18 3 7 12 9 19 6 8 -3
22 3 32 12 15 16 17 16 22 2 4 -10 11 -13 18 -9 20 13 -3 35 -36 35 -17 0 -31
3 -31 6 0 4 -9 12 -19 18 -16 10 -19 9 -16 -5z"/>
<path d="M1674 210 c0 -63 1 -89 3 -57 2 31 2 83 0 115 -2 31 -3 5 -3 -58z"/>
<path d="M3984 295 c10 -7 15 -18 11 -24 -4 -7 16 -11 60 -11 40 0 64 4 60 10
-3 5 -12 7 -20 4 -7 -3 -35 4 -61 15 -53 24 -78 27 -50 6z"/>
<path d="M2995 260 c3 -5 8 -10 11 -10 2 0 4 5 4 10 0 6 -5 10 -11 10 -5 0 -7
-4 -4 -10z"/>
<path d="M3405 260 c-41 -6 -31 -7 53 -8 67 -1 101 2 97 8 -7 11 -71 11 -150
0z"/>
<path d="M3690 260 c8 -5 26 -10 40 -10 20 0 22 2 10 10 -8 5 -26 10 -40 10
-20 0 -22 -2 -10 -10z"/>
<path d="M3638 253 c7 -3 16 -2 19 1 4 3 -2 6 -13 5 -11 0 -14 -3 -6 -6z"/>
<path d="M3778 253 c12 -2 30 -2 40 0 9 3 -1 5 -23 4 -22 0 -30 -2 -17 -4z"/>
<path d="M3898 253 c7 -3 16 -2 19 1 4 3 -2 6 -13 5 -11 0 -14 -3 -6 -6z"/>
<path d="M3298 243 c12 -2 30 -2 40 0 9 3 -1 5 -23 4 -22 0 -30 -2 -17 -4z"/>
<path d="M4584 162 c3 -5 55 -10 117 -11 62 0 110 1 108 4 -10 9 -231 17 -225
7z"/>
<path d="M4840 150 c0 -13 11 -13 30 0 12 8 11 10 -7 10 -13 0 -23 -4 -23 -10z"/>
<path d="M6022 125 c-13 -29 -16 -85 -4 -85 25 1 52 15 52 27 0 12 -3 13 -14
4 -11 -9 -16 -9 -22 0 -4 6 0 15 8 20 17 10 19 50 2 56 -6 2 -16 -8 -22 -22z"/>
<path d="M5904 126 c-3 -7 -4 -38 -2 -69 2 -44 6 -55 16 -48 19 12 32 79 21
107 -9 27 -27 31 -35 10z"/>
<path d="M3482 108 c-29 -29 -1 -98 41 -98 17 0 37 29 37 54 0 19 -35 56 -53
56 -7 0 -18 -5 -25 -12z"/>
<path d="M1672 50 c0 -19 2 -27 5 -17 2 9 2 25 0 35 -3 9 -5 1 -5 -18z"/>
<path d="M1711 64 c0 -11 3 -14 6 -6 3 7 2 16 -1 19 -3 4 -6 -2 -5 -13z"/>
<path d="M3145 17 c11 -9 29 -17 40 -17 27 0 7 17 -30 25 -29 7 -29 7 -10 -8z"/>
</g>
</svg>
